<?xml version="1.0" encoding="UTF-8" standalone="no"?>
<!DOCTYPE svg PUBLIC "-//W3C//DTD SVG 20010904//EN"
              "http://www.w3.org/TR/2001/REC-SVG-20010904/DTD/svg10.dtd">

<svg xmlns="http://www.w3.org/2000/svg"
     width="19.0833in" height="18in"
     viewBox="0 0 1374 1296">
  <path id="Selection #2"
        fill="none" stroke="black" stroke-width="1"
        d="M 1051.96,525.94
           C 1051.96,525.94 1066.00,524.00 1066.00,524.00
             1066.00,524.00 1085.00,522.00 1085.00,522.00
             1085.00,522.00 1100.00,519.94 1100.00,519.94
             1100.00,519.94 1107.96,519.94 1107.96,519.94
             1107.96,519.94 1122.00,518.00 1122.00,518.00
             1122.00,518.00 1138.00,516.00 1138.00,516.00
             1138.00,516.00 1138.00,578.00 1138.00,578.00
             1138.00,578.00 1118.91,574.01 1118.91,574.01
             1118.91,574.01 1112.17,574.01 1112.17,574.01
             1112.17,574.01 1106.91,572.01 1106.91,572.01
             1106.91,572.01 1100.17,572.01 1100.17,572.01
             1100.17,572.01 1084.91,568.07 1084.91,568.07
             1084.91,568.07 1079.09,568.07 1079.09,568.07
             1079.09,568.07 1072.91,566.01 1072.91,566.01
             1072.91,566.01 1066.17,566.01 1066.17,566.01
             1066.17,566.01 1060.91,564.01 1060.91,564.01
             1060.91,564.01 1054.17,564.01 1054.17,564.01
             1054.17,564.01 1042.00,562.00 1042.00,562.00
             1042.00,562.00 1042.00,525.94 1042.00,525.94
             1042.00,525.94 1051.96,525.94 1051.96,525.94 Z" />
</svg>
