<?xml version="1.0" encoding="UTF-8" standalone="no"?>
<!DOCTYPE svg PUBLIC "-//W3C//DTD SVG 20010904//EN"
              "http://www.w3.org/TR/2001/REC-SVG-20010904/DTD/svg10.dtd">

<svg xmlns="http://www.w3.org/2000/svg"
     width="19.0833in" height="18in"
     viewBox="0 0 1374 1296">
  <path id="Selection #1"
        fill="none" stroke="black" stroke-width="1"
        d="M 1060.13,481.58
           C 1060.13,481.58 1085.27,491.27 1085.27,491.27
             1085.27,491.27 1096.39,495.02 1096.39,495.02
             1101.59,497.22 1117.19,503.66 1122.00,504.00
             1122.00,504.00 1122.00,506.00 1122.00,506.00
             1122.00,506.00 1104.00,508.00 1104.00,508.00
             1104.00,508.00 1088.00,510.00 1088.00,510.00
             1088.00,510.00 1070.00,512.00 1070.00,512.00
             1070.00,512.00 1054.91,513.94 1054.91,513.94
             1054.91,513.94 1042.00,513.94 1042.00,513.94
             1042.00,513.94 1042.00,476.00 1042.00,476.00
             1050.06,476.23 1053.29,479.18 1060.13,481.58 Z" />
</svg>
