<?xml version="1.0" encoding="UTF-8" standalone="no"?>
<!DOCTYPE svg PUBLIC "-//W3C//DTD SVG 20010904//EN"
              "http://www.w3.org/TR/2001/REC-SVG-20010904/DTD/svg10.dtd">

<svg xmlns="http://www.w3.org/2000/svg"
     width="19.0833in" height="18in"
     viewBox="0 0 1374 1296">
  <path id="Selection"
        fill="none" stroke="black" stroke-width="1"
        d="M 1138.00,398.00
           C 1138.00,398.00 1138.00,498.00 1138.00,498.00
             1138.00,498.00 1030.00,458.00 1030.00,458.00
             1030.00,458.00 1030.00,572.00 1030.00,572.00
             1030.00,572.00 1138.00,590.00 1138.00,590.00
             1138.00,590.00 1138.00,700.23 1138.00,700.23
             1134.82,700.00 1053.50,710.50 1030.50,714.50
             1030.50,714.50 1030.04,723.00 1030.04,723.00
             1030.04,723.00 1030.04,868.00 1030.04,868.00
             1030.04,868.00 1138.00,820.00 1138.00,820.00
             1138.00,820.00 1138.00,942.00 1138.00,942.00
             1133.31,943.26 934.29,1075.12 927.50,1076.00
             927.50,1076.00 928.00,252.00 928.00,252.00
             936.35,255.17 1132.07,396.41 1138.00,398.00 Z" />
</svg>
